<?xml version="1.0" standalone="no"?><!DOCTYPE svg PUBLIC "-//W3C//DTD SVG 1.1//EN" "http://www.w3.org/Graphics/SVG/1.1/DTD/svg11.dtd"><svg t="1496801240378" class="icon" style="" viewBox="0 0 1024 1024" version="1.1" xmlns="http://www.w3.org/2000/svg" p-id="1706" xmlns:xlink="http://www.w3.org/1999/xlink" width="200" height="200"><defs><style type="text/css"></style></defs><path d="M1001.923704 369.186364l0 511.002276c0 44.646849-36.193317 80.84119-80.84119 80.84119l-80.82891 0c-44.647873 0-80.84119-36.19434-80.84119-80.84119l0-25.604144L264.650007 854.584496l0 25.604144c0 44.646849-36.19434 80.84119-80.84119 80.84119l-80.82891 0c-44.646849 0-80.84119-36.19434-80.84119-80.84119L22.138718 370.20967c0-44.646849 36.19434-80.84119 80.84119-80.84119l60.362786 0c44.646849 0 80.84119 36.19434 80.84119 80.84119L244.183883 612.073206l535.694655 0L779.878538 369.186364c0-44.646849 36.193317-80.84119 80.84119-80.84119l60.362786 0C965.730387 288.345174 1001.923704 324.539514 1001.923704 369.186364zM298.419112 358.953302 298.419112 562.954509l427.224198 0L725.64331 358.953302c0-44.646849 69.962421-114.610294 114.610294-114.610294l62.907749 0L903.161353 127.777175c0-41.256636-33.44574-74.701352-74.701352-74.701352L196.607308 53.075823c-41.256636 0-74.701352 33.444716-74.701352 74.701352l0 116.565832 61.902862 0C228.455667 244.343007 298.419112 314.306452 298.419112 358.953302z" p-id="1707"></path></svg>