<?xml version="1.0" standalone="no"?><!DOCTYPE svg PUBLIC "-//W3C//DTD SVG 1.1//EN" "http://www.w3.org/Graphics/SVG/1.1/DTD/svg11.dtd"><svg t="1496801254385" class="icon" style="" viewBox="0 0 1024 1024" version="1.1" xmlns="http://www.w3.org/2000/svg" p-id="1822" xmlns:xlink="http://www.w3.org/1999/xlink" width="200" height="200"><defs><style type="text/css"></style></defs><path d="M199.329303 227.629347l-61.902862 0L137.426441 111.063515c0-41.256636 33.44574-74.701352 74.701352-74.701352l631.852692 0c41.255613 0 74.701352 33.444716 74.701352 74.701352l0 116.565832-62.907749 0c-21.354354 0-48.497551 16.009625-71.009264 37.594223-60.563354 29.904077-242.386446 128.520095-332.820108 274.736225L313.939597 435.732989l0-93.493348C313.939597 297.592792 243.976152 227.629347 199.329303 227.629347zM741.163795 507.165902c-27.888164 12.075013-53.549613 25.25622-77.096912 39.074947l77.096912 0L741.163795 507.165902zM936.602999 271.631514l-60.362786 0c-28.327162 0-53.233412 14.58109-67.670216 36.634362 13.085016 112.596428 54.785767 158.007687 54.785767 158.007687-23.813359 5.836939-46.446845 12.529361-67.956741 19.906375L795.399023 595.359546 591.479681 595.359546c-108.690468 84.3542-151.814638 171.796738-151.814638 171.796738-47.214325-73.444732-105.072057-130.512473-155.865907-171.796738l-24.093744 0 0-18.853393c-56.618509-42.640146-99.43057-63.482847-99.43057-63.482847l99.43057-58.897412 0-100.629885c0-44.646849-36.19434-80.84119-80.84119-80.84119l-60.361763 0c-44.647873 0-80.84119 36.19434-80.84119 80.84119l0 509.97897c0 44.647873 36.193317 80.84119 80.84119 80.84119l80.827887 0c44.646849 0 80.84119-36.193317 80.84119-80.84119l0-25.604144 494.762407 0 0 25.604144c0 44.647873 36.193317 80.84119 80.84119 80.84119l80.827887 0c44.648896 0 80.84119-36.193317 80.84119-80.84119L1017.444189 352.472704C1017.443166 307.825854 981.250872 271.631514 936.602999 271.631514z" p-id="1823" fill="#d81e06"></path></svg>